name rise30.6535peak61.5555fall82.9339.mot
datacolumns 19
datarows 17
range 7.23996700000000 7.26663400000000
endheader
time	ground_force1_vx	ground_force1_vy	ground_force1_vz	ground_force1_px	ground_force1_py	ground_force1_pz	ground_force2_vx	ground_force2_vy	ground_force2_vz	ground_force2_px	ground_force2_py	ground_force2_pz	ground_torque1_x	ground_torque1_y	ground_torque1_z	ground_torque2_x	ground_torque2_y	ground_torque2_z	
7.23996700000000	-51.00577900000000	795.72515599999997	58.42570500000000	0.10689100000000	0.00000000000000	0.13977200000000	-5.26991900000000	16.00701900000000	4.94749900000000	0.00000000000000	0.00000000000000	0.00000000000000	0.00000000000000	25.85573500000000	0.00000000000000	0.00000000000000	1.60844300000000	0.00000000000000	
7.24163300000000	-51.30946100000000	793.49501999999995	58.23441200000000	0.10637900000000	0.00000000000000	0.13967800000000	-6.62311900000000	21.30801000000000	6.32954800000000	0.00000000000000	0.00000000000000	0.00000000000000	0.00000000000000	25.80718500000000	0.00000000000000	0.00000000000000	2.06880400000000	0.00000000000000	
7.24330100000000	-51.62859700000000	791.16344200000003	58.02896500000000	0.10587000000000	0.00000000000000	0.13958300000000	-7.98559900000000	27.07277500000000	7.75979300000000	0.33361800000000	0.00000000000000	-0.04062700000000	0.00000000000000	25.76138800000000	0.00000000000000	0.00000000000000	4.81305600000000	0.00000000000000	
7.24496700000000	-51.96339400000000	788.72973000000002	57.80924900000000	0.10536300000000	0.00000000000000	0.13948600000000	-9.30455300000000	33.18175000000000	9.19176300000000	0.33812900000000	0.00000000000000	-0.04150700000000	0.00000000000000	25.71837500000000	0.00000000000000	0.00000000000000	5.75505100000000	0.00000000000000	
7.24663700000000	-52.31399200000000	786.19317799999999	57.57515400000000	0.10485800000000	0.00000000000000	0.13938800000000	-10.52878800000000	39.50924500000000	10.57933500000000	0.34225500000000	0.00000000000000	-0.04232800000000	0.00000000000000	25.67815400000000	0.00000000000000	0.00000000000000	6.68284000000000	0.00000000000000	
7.24830300000000	-52.68045900000000	783.55306800000005	57.32657300000000	0.10435600000000	0.00000000000000	0.13928800000000	-11.61247200000000	45.93384400000000	11.88016100000000	0.34603900000000	0.00000000000000	-0.04309800000000	0.00000000000000	25.64071000000000	0.00000000000000	0.00000000000000	7.56872500000000	0.00000000000000	
7.24997000000000	-53.06279200000000	780.80866400000002	57.06340300000000	0.10385400000000	0.00000000000000	0.13918600000000	-12.51815300000000	52.34758400000000	13.05852400000000	0.34951800000000	0.00000000000000	-0.04382400000000	0.00000000000000	25.60600900000000	0.00000000000000	0.00000000000000	8.38871400000000	0.00000000000000	
7.25163600000000	-53.46091200000000	777.95921399999997	56.78554500000000	0.10335200000000	0.00000000000000	0.13908300000000	-13.21875600000000	58.66294400000000	14.08731900000000	0.35272200000000	0.00000000000000	-0.04451200000000	0.00000000000000	25.57399600000000	0.00000000000000	0.00000000000000	9.12394600000000	0.00000000000000	
7.25330600000000	-53.87466500000000	775.00394400000005	56.49290300000000	0.10285100000000	0.00000000000000	0.13897800000000	-13.69847400000000	64.81715500000000	14.94907100000000	0.35567800000000	0.00000000000000	-0.04516600000000	0.00000000000000	25.54459300000000	0.00000000000000	0.00000000000000	9.76148400000000	0.00000000000000	
7.25497700000000	-54.30381700000000	771.94206199999996	56.18538700000000	0.10234900000000	0.00000000000000	0.13887200000000	-13.95259600000000	70.77381900000000	15.63599600000000	0.35840900000000	0.00000000000000	-0.04579100000000	0.00000000000000	25.51770000000000	0.00000000000000	0.00000000000000	10.29451800000000	0.00000000000000	
7.25664000000000	-54.74805200000000	768.77275199999997	55.86290900000000	0.10184600000000	0.00000000000000	0.13876400000000	-13.98645500000000	76.52207400000000	16.14926900000000	0.36093600000000	0.00000000000000	-0.04639000000000	0.00000000000000	25.49319900000000	0.00000000000000	0.00000000000000	10.72201800000000	0.00000000000000	
7.25830600000000	-55.20697500000000	765.49517600000001	55.52538600000000	0.10134200000000	0.00000000000000	0.13865400000000	-13.81373500000000	82.07380400000000	16.49767400000000	0.36327500000000	0.00000000000000	-0.04696600000000	0.00000000000000	25.47094600000000	0.00000000000000	0.00000000000000	11.04797500000000	0.00000000000000	
7.25996600000000	-55.68010700000000	762.10847500000000	55.17273900000000	0.10083500000000	0.00000000000000	0.13854200000000	-13.45436100000000	87.45944600000000	16.69585700000000	0.36544200000000	0.00000000000000	-0.04752000000000	0.00000000000000	25.45078200000000	0.00000000000000	0.00000000000000	11.28034900000000	0.00000000000000	
7.26163300000000	-56.16688600000000	758.61176699999999	54.80489700000000	0.10032600000000	0.00000000000000	0.13842900000000	-12.93225200000000	92.72299099999999	16.76240000000000	0.36745200000000	0.00000000000000	-0.04805500000000	0.00000000000000	25.43252200000000	0.00000000000000	0.00000000000000	11.42987800000000	0.00000000000000	
7.26330400000000	-56.66666300000000	755.00414799999999	54.42179000000000	0.09981300000000	0.00000000000000	0.13831400000000	-12.27311900000000	97.91673400000001	16.71790700000000	0.36931600000000	0.00000000000000	-0.04857200000000	0.00000000000000	25.41596500000000	0.00000000000000	0.00000000000000	11.50885400000000	0.00000000000000	
7.26497200000000	-57.17870800000000	751.28469500000006	54.02335700000000	0.09929700000000	0.00000000000000	0.13819800000000	-11.50249300000000	103.09624300000000	16.58324600000000	0.37104600000000	0.00000000000000	-0.04907400000000	0.00000000000000	25.40088800000000	0.00000000000000	0.00000000000000	11.52999100000000	0.00000000000000	
7.26663400000000	-57.70220100000000	747.45246699999996	53.60954200000000	0.09877700000000	0.00000000000000	0.13807900000000	-10.64409700000000	108.31589900000000	16.37807000000000	0.37265200000000	0.00000000000000	-0.04956100000000	0.00000000000000	25.38704900000000	0.00000000000000	0.00000000000000	11.50544600000000	0.00000000000000	
